<svg width="264" height="798" viewBox="0 0 264 798" fill="none" xmlns="http://www.w3.org/2000/svg">
<circle cx="96" cy="96" r="96" transform="matrix(-1 0 0 1 219 606)" fill="url(#paint0_radial_0_1)"/>
<circle cx="96" cy="96" r="96" transform="matrix(-1 0 0 1 192 289)" fill="url(#paint1_radial_0_1)"/>
<ellipse cx="95.5" cy="96" rx="95.5" ry="96" transform="matrix(-1 0 0 1 255 0)" fill="url(#paint2_radial_0_1)"/>
<path d="M154.5 92.0006C89 59 -22.31 148.774 46.4298 212.488C132.355 292.131 163.584 279.474 177 326.493C194.463 387.694 133.632 460.868 98.5 413C49.0513 345.625 182.48 290.136 238 335.993C260.24 354.362 294 466.866 198.268 509.493C141 534.992 102.368 559.993 89 590.493C64.8433 645.607 103.937 680.04 128 696.992" stroke="#34BF34" stroke-opacity="0.5" stroke-width="3" stroke-dasharray="6 6"/>
<ellipse cx="5.5" cy="5" rx="5.5" ry="5" transform="matrix(-1 0 0 1 94 375)" fill="#34BF34"/>
<circle cx="5.5" cy="5.5" r="5.5" transform="matrix(-1 0 0 1 165 90)" fill="#34BF34"/>
<ellipse cx="5.5" cy="5" rx="5.5" ry="5" transform="matrix(-1 0 0 1 139 697)" fill="#34BF34"/>
<defs>
<radialGradient id="paint0_radial_0_1" cx="0" cy="0" r="1" gradientUnits="userSpaceOnUse" gradientTransform="translate(96 96) rotate(90) scale(96)">
<stop stop-color="#235923"/>
<stop offset="1" stop-color="#262626" stop-opacity="0"/>
</radialGradient>
<radialGradient id="paint1_radial_0_1" cx="0" cy="0" r="1" gradientUnits="userSpaceOnUse" gradientTransform="translate(96 96) rotate(90) scale(96)">
<stop stop-color="#235923"/>
<stop offset="1" stop-color="#262626" stop-opacity="0"/>
</radialGradient>
<radialGradient id="paint2_radial_0_1" cx="0" cy="0" r="1" gradientUnits="userSpaceOnUse" gradientTransform="translate(95.5 96) rotate(90) scale(96 95.5)">
<stop stop-color="#235923"/>
<stop offset="1" stop-color="#262626" stop-opacity="0"/>
</radialGradient>
</defs>
</svg>
