<svg width="815" height="1287" viewBox="0 0 815 1287" fill="none" xmlns="http://www.w3.org/2000/svg">
<circle cx="665" cy="1137" r="150" fill="url(#paint0_radial_20_71)"/>
<circle cx="365" cy="591" r="150" fill="url(#paint1_radial_20_71)"/>
<circle cx="546" cy="150" r="150" fill="url(#paint2_radial_20_71)"/>
<path d="M553.5 158C617 134 695.6 202.4 588 302C453.5 426.5 270 442.5 249 516C221.665 611.672 325.323 652 365.823 610C401.492 573.01 398.492 478.994 286 471.868C88.6909 459.368 -136.368 721 110.632 807C357.632 893 700.823 857.5 753.823 962.5C796.223 1046.5 711.298 1116 673.632 1142.5" stroke="#34BF34" stroke-opacity="0.5" stroke-width="3" stroke-dasharray="6 6"/>
<circle cx="549.5" cy="159.5" r="8.5" fill="#34BF34"/>
<circle cx="673.824" cy="1145.5" r="8.5" fill="#34BF34"/>
<circle cx="376.5" cy="592.5" r="8.5" fill="#34BF34"/>
<defs>
<radialGradient id="paint0_radial_20_71" cx="0" cy="0" r="1" gradientUnits="userSpaceOnUse" gradientTransform="translate(665 1137) rotate(90) scale(150)">
<stop stop-color="#235923"/>
<stop offset="1" stop-color="#262626" stop-opacity="0"/>
</radialGradient>
<radialGradient id="paint1_radial_20_71" cx="0" cy="0" r="1" gradientUnits="userSpaceOnUse" gradientTransform="translate(365 591) rotate(90) scale(150)">
<stop stop-color="#235923"/>
<stop offset="1" stop-color="#262626" stop-opacity="0"/>
</radialGradient>
<radialGradient id="paint2_radial_20_71" cx="0" cy="0" r="1" gradientUnits="userSpaceOnUse" gradientTransform="translate(546 150) rotate(90) scale(150)">
<stop stop-color="#235923"/>
<stop offset="1" stop-color="#262626" stop-opacity="0"/>
</radialGradient>
</defs>
</svg>
